<?xml version="1.0" standalone="no"?>
<!DOCTYPE svg PUBLIC "-//W3C//DTD SVG 20010904//EN"
 "http://www.w3.org/TR/2001/REC-SVG-20010904/DTD/svg10.dtd">
<svg version="1.0" xmlns="http://www.w3.org/2000/svg"
 width="624.000000pt" height="624.000000pt" viewBox="0 0 624.000000 624.000000"
 preserveAspectRatio="xMidYMid meet">
<metadata>
Created by potrace 1.14, written by Peter Selinger 2001-2017
</metadata>
<g transform="translate(0.000000,624.000000) scale(0.100000,-0.100000)"
fill="#000000" stroke="none">
<path d="M808 6060 c-137 -29 -247 -75 -358 -150 -77 -52 -190 -166 -237 -236
-21 -33 -41 -61 -44 -64 -3 -3 -17 -30 -31 -60 -58 -123 -76 -186 -94 -325 -9
-63 -8 -4153 0 -4220 4 -33 12 -78 18 -100 5 -22 11 -47 13 -55 4 -20 60 -159
77 -190 50 -93 218 -290 248 -290 5 0 10 -4 10 -8 0 -4 14 -17 32 -27 17 -11
48 -30 67 -42 20 -13 43 -26 51 -29 8 -4 38 -17 65 -29 28 -12 64 -26 80 -30
17 -4 35 -9 40 -11 120 -34 100 -33 2410 -31 2388 3 2245 1 2380 41 23 7 71
27 87 36 10 6 22 10 28 10 27 0 193 116 262 183 77 75 163 194 199 277 11 25
24 54 30 65 5 11 11 29 13 40 2 11 9 32 15 47 6 16 8 28 6 28 -2 0 0 11 5 25
5 14 13 55 16 92 10 94 9 4153 0 4233 -5 35 -12 74 -17 87 -5 13 -7 23 -4 23
5 0 -36 118 -60 175 -20 47 -102 177 -119 187 -6 4 -8 8 -3 8 4 0 -26 33 -66
73 -69 69 -213 177 -236 177 -7 0 -22 7 -34 15 -23 14 -157 66 -157 60 0 -2
-21 4 -47 13 -44 16 -235 17 -2303 19 -2153 2 -2259 1 -2342 -17z"/>
</g>
</svg>
