<svg width="214" height="60" viewBox="0 0 214 60" fill="none" xmlns="http://www.w3.org/2000/svg">
<circle cx="35" cy="24.9999" r="18.3508" transform="rotate(-29.4333 35 24.9999)" fill="#1E1E1E"/>
<circle cx="31.6314" cy="18.9314" r="12.9397" transform="rotate(-29.4333 31.6314 18.9314)" fill="white"/>
<rect y="10.0002" width="9.50412" height="50" fill="#1E1E1E"/>
<rect y="50.4963" width="53.099" height="9.50412" fill="#1E1E1E"/>
<path d="M87.2188 24.7736V26.0001H81.5312V24.7736H87.2188ZM81.8281 14.6251V26.0001H80.3203V14.6251H81.8281ZM88.3438 21.8673V21.6876C88.3438 21.0782 88.4323 20.5131 88.6094 19.9923C88.7865 19.4663 89.0417 19.0105 89.375 18.6251C89.7083 18.2345 90.112 17.9324 90.5859 17.7189C91.0599 17.5001 91.5911 17.3907 92.1797 17.3907C92.7734 17.3907 93.3073 17.5001 93.7812 17.7189C94.2604 17.9324 94.6667 18.2345 95 18.6251C95.3385 19.0105 95.5964 19.4663 95.7734 19.9923C95.9505 20.5131 96.0391 21.0782 96.0391 21.6876V21.8673C96.0391 22.4767 95.9505 23.0418 95.7734 23.5626C95.5964 24.0835 95.3385 24.5392 95 24.9298C94.6667 25.3152 94.263 25.6173 93.7891 25.8361C93.3203 26.0496 92.7891 26.1564 92.1953 26.1564C91.6016 26.1564 91.0677 26.0496 90.5938 25.8361C90.1198 25.6173 89.7135 25.3152 89.375 24.9298C89.0417 24.5392 88.7865 24.0835 88.6094 23.5626C88.4323 23.0418 88.3438 22.4767 88.3438 21.8673ZM89.7891 21.6876V21.8673C89.7891 22.2892 89.8385 22.6876 89.9375 23.0626C90.0365 23.4324 90.1849 23.7605 90.3828 24.047C90.5859 24.3335 90.8385 24.56 91.1406 24.7267C91.4427 24.8881 91.7943 24.9689 92.1953 24.9689C92.5911 24.9689 92.9375 24.8881 93.2344 24.7267C93.5365 24.56 93.7865 24.3335 93.9844 24.047C94.1823 23.7605 94.3307 23.4324 94.4297 23.0626C94.5339 22.6876 94.5859 22.2892 94.5859 21.8673V21.6876C94.5859 21.271 94.5339 20.8777 94.4297 20.5079C94.3307 20.1329 94.1797 19.8022 93.9766 19.5157C93.7786 19.2241 93.5286 18.9949 93.2266 18.8282C92.9297 18.6616 92.5807 18.5782 92.1797 18.5782C91.7839 18.5782 91.4349 18.6616 91.1328 18.8282C90.8359 18.9949 90.5859 19.2241 90.3828 19.5157C90.1849 19.8022 90.0365 20.1329 89.9375 20.5079C89.8385 20.8777 89.7891 21.271 89.7891 21.6876ZM103.023 24.047V17.547H104.477V26.0001H103.094L103.023 24.047ZM103.297 22.2657L103.898 22.2501C103.898 22.8126 103.839 23.3335 103.719 23.8126C103.604 24.2866 103.417 24.698 103.156 25.047C102.896 25.396 102.555 25.6694 102.133 25.8673C101.711 26.06 101.198 26.1564 100.594 26.1564C100.182 26.1564 99.8047 26.0965 99.4609 25.9767C99.1224 25.8569 98.8307 25.672 98.5859 25.422C98.3411 25.172 98.151 24.8465 98.0156 24.4454C97.8854 24.0444 97.8203 23.5626 97.8203 23.0001V17.547H99.2656V23.0157C99.2656 23.396 99.3073 23.7111 99.3906 23.9611C99.4792 24.2059 99.5964 24.4012 99.7422 24.547C99.8932 24.6876 100.06 24.7866 100.242 24.8439C100.43 24.9012 100.622 24.9298 100.82 24.9298C101.435 24.9298 101.922 24.8126 102.281 24.5782C102.641 24.3387 102.898 24.0184 103.055 23.6173C103.216 23.2111 103.297 22.7605 103.297 22.2657ZM108.125 19.3517V26.0001H106.68V17.547H108.047L108.125 19.3517ZM107.781 21.4532L107.18 21.4298C107.185 20.8517 107.271 20.3178 107.438 19.8282C107.604 19.3335 107.839 18.9038 108.141 18.5392C108.443 18.1746 108.802 17.8934 109.219 17.6954C109.641 17.4923 110.107 17.3907 110.617 17.3907C111.034 17.3907 111.409 17.448 111.742 17.5626C112.076 17.672 112.359 17.8491 112.594 18.0939C112.833 18.3387 113.016 18.6564 113.141 19.047C113.266 19.4324 113.328 19.9038 113.328 20.4611V26.0001H111.875V20.4454C111.875 20.0027 111.81 19.6486 111.68 19.3829C111.549 19.1121 111.359 18.9168 111.109 18.797C110.859 18.672 110.552 18.6095 110.188 18.6095C109.828 18.6095 109.5 18.685 109.203 18.8361C108.911 18.9871 108.659 19.1954 108.445 19.4611C108.237 19.7267 108.073 20.0314 107.953 20.3751C107.839 20.7137 107.781 21.073 107.781 21.4532ZM117.094 17.547V26.0001H115.641V17.547H117.094ZM115.531 15.3048C115.531 15.0704 115.602 14.8725 115.742 14.7111C115.888 14.5496 116.102 14.4689 116.383 14.4689C116.659 14.4689 116.87 14.5496 117.016 14.7111C117.167 14.8725 117.242 15.0704 117.242 15.3048C117.242 15.5288 117.167 15.7215 117.016 15.8829C116.87 16.0392 116.659 16.1173 116.383 16.1173C116.102 16.1173 115.888 16.0392 115.742 15.8829C115.602 15.7215 115.531 15.5288 115.531 15.3048ZM124.336 23.7579C124.336 23.5496 124.289 23.3569 124.195 23.1798C124.107 22.9975 123.922 22.8335 123.641 22.6876C123.365 22.5366 122.948 22.4064 122.391 22.297C121.922 22.198 121.497 22.0809 121.117 21.9454C120.742 21.81 120.422 21.646 120.156 21.4532C119.896 21.2605 119.695 21.034 119.555 20.7736C119.414 20.5131 119.344 20.2085 119.344 19.8595C119.344 19.5262 119.417 19.2111 119.562 18.9142C119.714 18.6173 119.924 18.3543 120.195 18.1251C120.471 17.896 120.802 17.7163 121.188 17.5861C121.573 17.4559 122.003 17.3907 122.477 17.3907C123.154 17.3907 123.732 17.5105 124.211 17.7501C124.69 17.9897 125.057 18.31 125.312 18.7111C125.568 19.1069 125.695 19.547 125.695 20.0314H124.25C124.25 19.797 124.18 19.5704 124.039 19.3517C123.904 19.1277 123.703 18.9428 123.438 18.797C123.177 18.6512 122.857 18.5782 122.477 18.5782C122.076 18.5782 121.75 18.6407 121.5 18.7657C121.255 18.8855 121.076 19.0392 120.961 19.2267C120.852 19.4142 120.797 19.6121 120.797 19.8204C120.797 19.9767 120.823 20.1173 120.875 20.2423C120.932 20.3621 121.031 20.4741 121.172 20.5782C121.312 20.6772 121.51 20.771 121.766 20.8595C122.021 20.948 122.346 21.0366 122.742 21.1251C123.435 21.2814 124.005 21.4689 124.453 21.6876C124.901 21.9064 125.234 22.1746 125.453 22.4923C125.672 22.81 125.781 23.1954 125.781 23.6486C125.781 24.0184 125.703 24.3569 125.547 24.6642C125.396 24.9715 125.174 25.2371 124.883 25.4611C124.596 25.6798 124.253 25.8517 123.852 25.9767C123.456 26.0965 123.01 26.1564 122.516 26.1564C121.771 26.1564 121.141 26.0236 120.625 25.7579C120.109 25.4923 119.719 25.1486 119.453 24.7267C119.188 24.3048 119.055 23.8595 119.055 23.3907H120.508C120.529 23.7866 120.643 24.1017 120.852 24.3361C121.06 24.5652 121.315 24.7293 121.617 24.8282C121.919 24.922 122.219 24.9689 122.516 24.9689C122.911 24.9689 123.242 24.9168 123.508 24.8126C123.779 24.7085 123.984 24.5652 124.125 24.3829C124.266 24.2006 124.336 23.9923 124.336 23.7579ZM140.625 19.9532V20.672C140.625 21.5262 140.518 22.2918 140.305 22.9689C140.091 23.646 139.784 24.2215 139.383 24.6954C138.982 25.1694 138.5 25.5314 137.938 25.7814C137.38 26.0314 136.755 26.1564 136.062 26.1564C135.391 26.1564 134.773 26.0314 134.211 25.7814C133.654 25.5314 133.169 25.1694 132.758 24.6954C132.352 24.2215 132.036 23.646 131.812 22.9689C131.589 22.2918 131.477 21.5262 131.477 20.672V19.9532C131.477 19.0991 131.586 18.3361 131.805 17.6642C132.029 16.9871 132.344 16.4116 132.75 15.9376C133.156 15.4585 133.638 15.0939 134.195 14.8439C134.758 14.5939 135.375 14.4689 136.047 14.4689C136.74 14.4689 137.365 14.5939 137.922 14.8439C138.484 15.0939 138.966 15.4585 139.367 15.9376C139.773 16.4116 140.083 16.9871 140.297 17.6642C140.516 18.3361 140.625 19.0991 140.625 19.9532ZM139.133 20.672V19.9376C139.133 19.2605 139.062 18.6616 138.922 18.1407C138.786 17.6199 138.586 17.1824 138.32 16.8282C138.055 16.4741 137.729 16.2059 137.344 16.0236C136.964 15.8413 136.531 15.7501 136.047 15.7501C135.578 15.7501 135.154 15.8413 134.773 16.0236C134.398 16.2059 134.076 16.4741 133.805 16.8282C133.539 17.1824 133.333 17.6199 133.188 18.1407C133.042 18.6616 132.969 19.2605 132.969 19.9376V20.672C132.969 21.3543 133.042 21.9585 133.188 22.4845C133.333 23.0053 133.542 23.4454 133.812 23.8048C134.089 24.159 134.414 24.4272 134.789 24.6095C135.169 24.7918 135.594 24.8829 136.062 24.8829C136.552 24.8829 136.987 24.7918 137.367 24.6095C137.747 24.4272 138.068 24.159 138.328 23.8048C138.594 23.4454 138.794 23.0053 138.93 22.4845C139.065 21.9585 139.133 21.3543 139.133 20.672ZM147.836 24.047V17.547H149.289V26.0001H147.906L147.836 24.047ZM148.109 22.2657L148.711 22.2501C148.711 22.8126 148.651 23.3335 148.531 23.8126C148.417 24.2866 148.229 24.698 147.969 25.047C147.708 25.396 147.367 25.6694 146.945 25.8673C146.523 26.06 146.01 26.1564 145.406 26.1564C144.995 26.1564 144.617 26.0965 144.273 25.9767C143.935 25.8569 143.643 25.672 143.398 25.422C143.154 25.172 142.964 24.8465 142.828 24.4454C142.698 24.0444 142.633 23.5626 142.633 23.0001V17.547H144.078V23.0157C144.078 23.396 144.12 23.7111 144.203 23.9611C144.292 24.2059 144.409 24.4012 144.555 24.547C144.706 24.6876 144.872 24.7866 145.055 24.8439C145.242 24.9012 145.435 24.9298 145.633 24.9298C146.247 24.9298 146.734 24.8126 147.094 24.5782C147.453 24.3387 147.711 24.0184 147.867 23.6173C148.029 23.2111 148.109 22.7605 148.109 22.2657ZM152.938 18.8751V26.0001H151.492V17.547H152.898L152.938 18.8751ZM155.578 17.5001L155.57 18.8439C155.451 18.8178 155.336 18.8022 155.227 18.797C155.122 18.7866 155.003 18.7814 154.867 18.7814C154.534 18.7814 154.24 18.8335 153.984 18.9376C153.729 19.0418 153.513 19.1876 153.336 19.3751C153.159 19.5626 153.018 19.7866 152.914 20.047C152.815 20.3022 152.75 20.5835 152.719 20.8907L152.312 21.1251C152.312 20.6147 152.362 20.1355 152.461 19.6876C152.565 19.2397 152.724 18.8439 152.938 18.5001C153.151 18.1512 153.422 17.8803 153.75 17.6876C154.083 17.4897 154.479 17.3907 154.938 17.3907C155.042 17.3907 155.161 17.4038 155.297 17.4298C155.432 17.4506 155.526 17.4741 155.578 17.5001ZM158.359 18.8751V26.0001H156.914V17.547H158.32L158.359 18.8751ZM161 17.5001L160.992 18.8439C160.872 18.8178 160.758 18.8022 160.648 18.797C160.544 18.7866 160.424 18.7814 160.289 18.7814C159.956 18.7814 159.661 18.8335 159.406 18.9376C159.151 19.0418 158.935 19.1876 158.758 19.3751C158.581 19.5626 158.44 19.7866 158.336 20.047C158.237 20.3022 158.172 20.5835 158.141 20.8907L157.734 21.1251C157.734 20.6147 157.784 20.1355 157.883 19.6876C157.987 19.2397 158.146 18.8439 158.359 18.5001C158.573 18.1512 158.844 17.8803 159.172 17.6876C159.505 17.4897 159.901 17.3907 160.359 17.3907C160.464 17.3907 160.583 17.4038 160.719 17.4298C160.854 17.4506 160.948 17.4741 161 17.5001ZM167.008 24.5548V20.2032C167.008 19.8699 166.94 19.5809 166.805 19.3361C166.674 19.0861 166.477 18.8934 166.211 18.7579C165.945 18.6225 165.617 18.5548 165.227 18.5548C164.862 18.5548 164.542 18.6173 164.266 18.7423C163.995 18.8673 163.781 19.0314 163.625 19.2345C163.474 19.4376 163.398 19.6564 163.398 19.8907H161.953C161.953 19.5887 162.031 19.2892 162.188 18.9923C162.344 18.6954 162.568 18.4272 162.859 18.1876C163.156 17.9428 163.51 17.7501 163.922 17.6095C164.339 17.4637 164.802 17.3907 165.312 17.3907C165.927 17.3907 166.469 17.4949 166.938 17.7032C167.411 17.9116 167.781 18.2267 168.047 18.6486C168.318 19.0652 168.453 19.5887 168.453 20.2189V24.1564C168.453 24.4376 168.477 24.7371 168.523 25.0548C168.576 25.3725 168.651 25.646 168.75 25.8751V26.0001H167.242C167.169 25.8335 167.112 25.6121 167.07 25.3361C167.029 25.0548 167.008 24.7944 167.008 24.5548ZM167.258 20.8751L167.273 21.8907H165.812C165.401 21.8907 165.034 21.9246 164.711 21.9923C164.388 22.0548 164.117 22.1512 163.898 22.2814C163.68 22.4116 163.513 22.5756 163.398 22.7736C163.284 22.9663 163.227 23.1928 163.227 23.4532C163.227 23.7189 163.286 23.9611 163.406 24.1798C163.526 24.3986 163.706 24.573 163.945 24.7032C164.19 24.8282 164.49 24.8907 164.844 24.8907C165.286 24.8907 165.677 24.797 166.016 24.6095C166.354 24.422 166.622 24.1928 166.82 23.922C167.023 23.6512 167.133 23.3881 167.148 23.1329L167.766 23.8282C167.729 24.047 167.63 24.2892 167.469 24.5548C167.307 24.8204 167.091 25.0756 166.82 25.3204C166.555 25.56 166.237 25.7605 165.867 25.922C165.503 26.0782 165.091 26.1564 164.633 26.1564C164.06 26.1564 163.557 26.0444 163.125 25.8204C162.698 25.5965 162.365 25.297 162.125 24.922C161.891 24.5418 161.773 24.1173 161.773 23.6486C161.773 23.1954 161.862 22.797 162.039 22.4532C162.216 22.1043 162.471 21.8152 162.805 21.5861C163.138 21.3517 163.539 21.1746 164.008 21.0548C164.477 20.935 165 20.8751 165.578 20.8751H167.258ZM176.055 24.3595V14.0001H177.508V26.0001H176.18L176.055 24.3595ZM170.367 21.8673V21.7032C170.367 21.0574 170.445 20.4715 170.602 19.9454C170.763 19.4142 170.99 18.9585 171.281 18.5782C171.578 18.198 171.93 17.9064 172.336 17.7032C172.747 17.4949 173.206 17.3907 173.711 17.3907C174.242 17.3907 174.706 17.4845 175.102 17.672C175.503 17.8543 175.841 18.1225 176.117 18.4767C176.398 18.8256 176.62 19.2475 176.781 19.7423C176.943 20.2371 177.055 20.797 177.117 21.422V22.1407C177.06 22.7605 176.948 23.3178 176.781 23.8126C176.62 24.3074 176.398 24.7293 176.117 25.0782C175.841 25.4272 175.503 25.6954 175.102 25.8829C174.701 26.0652 174.232 26.1564 173.695 26.1564C173.201 26.1564 172.747 26.0496 172.336 25.8361C171.93 25.6225 171.578 25.323 171.281 24.9376C170.99 24.5522 170.763 24.0991 170.602 23.5782C170.445 23.0522 170.367 22.4819 170.367 21.8673ZM171.82 21.7032V21.8673C171.82 22.2892 171.862 22.685 171.945 23.0548C172.034 23.4246 172.169 23.7501 172.352 24.0314C172.534 24.3126 172.766 24.534 173.047 24.6954C173.328 24.8517 173.664 24.9298 174.055 24.9298C174.534 24.9298 174.927 24.8282 175.234 24.6251C175.547 24.422 175.797 24.1538 175.984 23.8204C176.172 23.4871 176.318 23.1251 176.422 22.7345V20.8517C176.359 20.5652 176.268 20.2892 176.148 20.0236C176.034 19.7527 175.883 19.5131 175.695 19.3048C175.513 19.0913 175.286 18.922 175.016 18.797C174.75 18.672 174.435 18.6095 174.07 18.6095C173.674 18.6095 173.333 18.6928 173.047 18.8595C172.766 19.021 172.534 19.2449 172.352 19.5314C172.169 19.8126 172.034 20.1407 171.945 20.5157C171.862 20.8855 171.82 21.2814 171.82 21.7032ZM83.3984 45.0001H81.0234L81.0391 43.7736H83.3984C84.2109 43.7736 84.888 43.6043 85.4297 43.2657C85.9714 42.922 86.3776 42.4428 86.6484 41.8282C86.9245 41.2085 87.0625 40.4845 87.0625 39.6564V38.9611C87.0625 38.31 86.9844 37.7319 86.8281 37.2267C86.6719 36.7163 86.4427 36.2866 86.1406 35.9376C85.8385 35.5835 85.4688 35.3152 85.0312 35.1329C84.599 34.9506 84.1016 34.8595 83.5391 34.8595H80.9766V33.6251H83.5391C84.2839 33.6251 84.9635 33.7501 85.5781 34.0001C86.1927 34.2449 86.7214 34.6017 87.1641 35.0704C87.612 35.534 87.9557 36.0965 88.1953 36.7579C88.4349 37.4142 88.5547 38.1538 88.5547 38.9767V39.6564C88.5547 40.4793 88.4349 41.2215 88.1953 41.8829C87.9557 42.5392 87.6094 43.0991 87.1562 43.5626C86.7083 44.0262 86.1667 44.3829 85.5312 44.6329C84.901 44.8777 84.1901 45.0001 83.3984 45.0001ZM81.8281 33.6251V45.0001H80.3203V33.6251H81.8281ZM94.1094 45.1564C93.5208 45.1564 92.987 45.0574 92.5078 44.8595C92.0339 44.6564 91.625 44.3725 91.2812 44.0079C90.9427 43.6434 90.6823 43.2111 90.5 42.7111C90.3177 42.2111 90.2266 41.6642 90.2266 41.0704V40.7423C90.2266 40.0548 90.3281 39.4428 90.5312 38.9064C90.7344 38.3647 91.0104 37.9064 91.3594 37.5314C91.7083 37.1564 92.1042 36.8725 92.5469 36.6798C92.9896 36.4871 93.4479 36.3907 93.9219 36.3907C94.526 36.3907 95.0469 36.4949 95.4844 36.7032C95.9271 36.9116 96.2891 37.2032 96.5703 37.5782C96.8516 37.948 97.0599 38.3855 97.1953 38.8907C97.3307 39.3907 97.3984 39.9376 97.3984 40.5314V41.1798H91.0859V40.0001H95.9531V39.8907C95.9323 39.5157 95.8542 39.1512 95.7188 38.797C95.5885 38.4428 95.3802 38.1512 95.0938 37.922C94.8073 37.6928 94.4167 37.5782 93.9219 37.5782C93.5938 37.5782 93.2917 37.6486 93.0156 37.7892C92.7396 37.9246 92.5026 38.1277 92.3047 38.3986C92.1068 38.6694 91.9531 39.0001 91.8438 39.3907C91.7344 39.7814 91.6797 40.2319 91.6797 40.7423V41.0704C91.6797 41.4715 91.7344 41.8491 91.8438 42.2032C91.9583 42.5522 92.1224 42.8595 92.3359 43.1251C92.5547 43.3907 92.8177 43.5991 93.125 43.7501C93.4375 43.9012 93.7917 43.9767 94.1875 43.9767C94.6979 43.9767 95.1302 43.8725 95.4844 43.6642C95.8385 43.4559 96.1484 43.1772 96.4141 42.8282L97.2891 43.5236C97.1068 43.7996 96.875 44.0626 96.5938 44.3126C96.3125 44.5626 95.9661 44.7657 95.5547 44.922C95.1484 45.0782 94.6667 45.1564 94.1094 45.1564ZM93.1172 35.297L94.6328 33.0001H96.375L94.2812 35.297H93.1172ZM101.547 43.6954L103.859 36.547H105.336L102.297 45.0001H101.328L101.547 43.6954ZM99.6172 36.547L102 43.7345L102.164 45.0001H101.195L98.1328 36.547H99.6172ZM110.125 45.1564C109.536 45.1564 109.003 45.0574 108.523 44.8595C108.049 44.6564 107.641 44.3725 107.297 44.0079C106.958 43.6434 106.698 43.2111 106.516 42.7111C106.333 42.2111 106.242 41.6642 106.242 41.0704V40.7423C106.242 40.0548 106.344 39.4428 106.547 38.9064C106.75 38.3647 107.026 37.9064 107.375 37.5314C107.724 37.1564 108.12 36.8725 108.562 36.6798C109.005 36.4871 109.464 36.3907 109.938 36.3907C110.542 36.3907 111.062 36.4949 111.5 36.7032C111.943 36.9116 112.305 37.2032 112.586 37.5782C112.867 37.948 113.076 38.3855 113.211 38.8907C113.346 39.3907 113.414 39.9376 113.414 40.5314V41.1798H107.102V40.0001H111.969V39.8907C111.948 39.5157 111.87 39.1512 111.734 38.797C111.604 38.4428 111.396 38.1512 111.109 37.922C110.823 37.6928 110.432 37.5782 109.938 37.5782C109.609 37.5782 109.307 37.6486 109.031 37.7892C108.755 37.9246 108.518 38.1277 108.32 38.3986C108.122 38.6694 107.969 39.0001 107.859 39.3907C107.75 39.7814 107.695 40.2319 107.695 40.7423V41.0704C107.695 41.4715 107.75 41.8491 107.859 42.2032C107.974 42.5522 108.138 42.8595 108.352 43.1251C108.57 43.3907 108.833 43.5991 109.141 43.7501C109.453 43.9012 109.807 43.9767 110.203 43.9767C110.714 43.9767 111.146 43.8725 111.5 43.6642C111.854 43.4559 112.164 43.1772 112.43 42.8282L113.305 43.5236C113.122 43.7996 112.891 44.0626 112.609 44.3126C112.328 44.5626 111.982 44.7657 111.57 44.922C111.164 45.0782 110.682 45.1564 110.125 45.1564ZM116.672 33.0001V45.0001H115.219V33.0001H116.672ZM118.609 40.8673V40.6876C118.609 40.0782 118.698 39.5131 118.875 38.9923C119.052 38.4663 119.307 38.0105 119.641 37.6251C119.974 37.2345 120.378 36.9324 120.852 36.7189C121.326 36.5001 121.857 36.3907 122.445 36.3907C123.039 36.3907 123.573 36.5001 124.047 36.7189C124.526 36.9324 124.932 37.2345 125.266 37.6251C125.604 38.0105 125.862 38.4663 126.039 38.9923C126.216 39.5131 126.305 40.0782 126.305 40.6876V40.8673C126.305 41.4767 126.216 42.0418 126.039 42.5626C125.862 43.0835 125.604 43.5392 125.266 43.9298C124.932 44.3152 124.529 44.6173 124.055 44.8361C123.586 45.0496 123.055 45.1564 122.461 45.1564C121.867 45.1564 121.333 45.0496 120.859 44.8361C120.385 44.6173 119.979 44.3152 119.641 43.9298C119.307 43.5392 119.052 43.0835 118.875 42.5626C118.698 42.0418 118.609 41.4767 118.609 40.8673ZM120.055 40.6876V40.8673C120.055 41.2892 120.104 41.6876 120.203 42.0626C120.302 42.4324 120.451 42.7605 120.648 43.047C120.852 43.3335 121.104 43.56 121.406 43.7267C121.708 43.8881 122.06 43.9689 122.461 43.9689C122.857 43.9689 123.203 43.8881 123.5 43.7267C123.802 43.56 124.052 43.3335 124.25 43.047C124.448 42.7605 124.596 42.4324 124.695 42.0626C124.799 41.6876 124.852 41.2892 124.852 40.8673V40.6876C124.852 40.271 124.799 39.8777 124.695 39.5079C124.596 39.1329 124.445 38.8022 124.242 38.5157C124.044 38.2241 123.794 37.9949 123.492 37.8282C123.195 37.6616 122.846 37.5782 122.445 37.5782C122.049 37.5782 121.701 37.6616 121.398 37.8282C121.102 37.9949 120.852 38.2241 120.648 38.5157C120.451 38.8022 120.302 39.1329 120.203 39.5079C120.104 39.8777 120.055 40.271 120.055 40.6876ZM129.562 38.172V48.2501H128.109V36.547H129.438L129.562 38.172ZM135.258 40.7032V40.8673C135.258 41.4819 135.185 42.0522 135.039 42.5782C134.893 43.0991 134.68 43.5522 134.398 43.9376C134.122 44.323 133.781 44.6225 133.375 44.8361C132.969 45.0496 132.503 45.1564 131.977 45.1564C131.44 45.1564 130.966 45.0678 130.555 44.8907C130.143 44.7137 129.794 44.4559 129.508 44.1173C129.221 43.7788 128.992 43.3725 128.82 42.8986C128.654 42.4246 128.539 41.8907 128.477 41.297V40.422C128.539 39.797 128.656 39.2371 128.828 38.7423C129 38.2475 129.227 37.8256 129.508 37.4767C129.794 37.1225 130.141 36.8543 130.547 36.672C130.953 36.4845 131.422 36.3907 131.953 36.3907C132.484 36.3907 132.956 36.4949 133.367 36.7032C133.779 36.9064 134.125 37.198 134.406 37.5782C134.688 37.9585 134.898 38.4142 135.039 38.9454C135.185 39.4715 135.258 40.0574 135.258 40.7032ZM133.805 40.8673V40.7032C133.805 40.2814 133.76 39.8855 133.672 39.5157C133.583 39.1407 133.445 38.8126 133.258 38.5314C133.076 38.2449 132.841 38.021 132.555 37.8595C132.268 37.6928 131.927 37.6095 131.531 37.6095C131.167 37.6095 130.849 37.672 130.578 37.797C130.312 37.922 130.086 38.0913 129.898 38.3048C129.711 38.5131 129.557 38.7527 129.438 39.0236C129.323 39.2892 129.237 39.5652 129.18 39.8517V41.8751C129.284 42.2397 129.43 42.5835 129.617 42.9064C129.805 43.2241 130.055 43.4819 130.367 43.6798C130.68 43.8725 131.073 43.9689 131.547 43.9689C131.938 43.9689 132.273 43.8881 132.555 43.7267C132.841 43.56 133.076 43.3335 133.258 43.047C133.445 42.7605 133.583 42.4324 133.672 42.0626C133.76 41.6876 133.805 41.2892 133.805 40.8673ZM138.547 38.172V48.2501H137.094V36.547H138.422L138.547 38.172ZM144.242 40.7032V40.8673C144.242 41.4819 144.169 42.0522 144.023 42.5782C143.878 43.0991 143.664 43.5522 143.383 43.9376C143.107 44.323 142.766 44.6225 142.359 44.8361C141.953 45.0496 141.487 45.1564 140.961 45.1564C140.424 45.1564 139.951 45.0678 139.539 44.8907C139.128 44.7137 138.779 44.4559 138.492 44.1173C138.206 43.7788 137.977 43.3725 137.805 42.8986C137.638 42.4246 137.523 41.8907 137.461 41.297V40.422C137.523 39.797 137.641 39.2371 137.812 38.7423C137.984 38.2475 138.211 37.8256 138.492 37.4767C138.779 37.1225 139.125 36.8543 139.531 36.672C139.938 36.4845 140.406 36.3907 140.938 36.3907C141.469 36.3907 141.94 36.4949 142.352 36.7032C142.763 36.9064 143.109 37.198 143.391 37.5782C143.672 37.9585 143.883 38.4142 144.023 38.9454C144.169 39.4715 144.242 40.0574 144.242 40.7032ZM142.789 40.8673V40.7032C142.789 40.2814 142.745 39.8855 142.656 39.5157C142.568 39.1407 142.43 38.8126 142.242 38.5314C142.06 38.2449 141.826 38.021 141.539 37.8595C141.253 37.6928 140.911 37.6095 140.516 37.6095C140.151 37.6095 139.833 37.672 139.562 37.797C139.297 37.922 139.07 38.0913 138.883 38.3048C138.695 38.5131 138.542 38.7527 138.422 39.0236C138.307 39.2892 138.221 39.5652 138.164 39.8517V41.8751C138.268 42.2397 138.414 42.5835 138.602 42.9064C138.789 43.2241 139.039 43.4819 139.352 43.6798C139.664 43.8725 140.057 43.9689 140.531 43.9689C140.922 43.9689 141.258 43.8881 141.539 43.7267C141.826 43.56 142.06 43.3335 142.242 43.047C142.43 42.7605 142.568 42.4324 142.656 42.0626C142.745 41.6876 142.789 41.2892 142.789 40.8673ZM149.594 45.1564C149.005 45.1564 148.471 45.0574 147.992 44.8595C147.518 44.6564 147.109 44.3725 146.766 44.0079C146.427 43.6434 146.167 43.2111 145.984 42.7111C145.802 42.2111 145.711 41.6642 145.711 41.0704V40.7423C145.711 40.0548 145.812 39.4428 146.016 38.9064C146.219 38.3647 146.495 37.9064 146.844 37.5314C147.193 37.1564 147.589 36.8725 148.031 36.6798C148.474 36.4871 148.932 36.3907 149.406 36.3907C150.01 36.3907 150.531 36.4949 150.969 36.7032C151.411 36.9116 151.773 37.2032 152.055 37.5782C152.336 37.948 152.544 38.3855 152.68 38.8907C152.815 39.3907 152.883 39.9376 152.883 40.5314V41.1798H146.57V40.0001H151.438V39.8907C151.417 39.5157 151.339 39.1512 151.203 38.797C151.073 38.4428 150.865 38.1512 150.578 37.922C150.292 37.6928 149.901 37.5782 149.406 37.5782C149.078 37.5782 148.776 37.6486 148.5 37.7892C148.224 37.9246 147.987 38.1277 147.789 38.3986C147.591 38.6694 147.438 39.0001 147.328 39.3907C147.219 39.7814 147.164 40.2319 147.164 40.7423V41.0704C147.164 41.4715 147.219 41.8491 147.328 42.2032C147.443 42.5522 147.607 42.8595 147.82 43.1251C148.039 43.3907 148.302 43.5991 148.609 43.7501C148.922 43.9012 149.276 43.9767 149.672 43.9767C150.182 43.9767 150.615 43.8725 150.969 43.6642C151.323 43.4559 151.633 43.1772 151.898 42.8282L152.773 43.5236C152.591 43.7996 152.359 44.0626 152.078 44.3126C151.797 44.5626 151.451 44.7657 151.039 44.922C150.633 45.0782 150.151 45.1564 149.594 45.1564ZM159.742 43.047V36.547H161.195V45.0001H159.812L159.742 43.047ZM160.016 41.2657L160.617 41.2501C160.617 41.8126 160.557 42.3335 160.438 42.8126C160.323 43.2866 160.135 43.698 159.875 44.047C159.615 44.396 159.273 44.6694 158.852 44.8673C158.43 45.06 157.917 45.1564 157.312 45.1564C156.901 45.1564 156.523 45.0965 156.18 44.9767C155.841 44.8569 155.549 44.672 155.305 44.422C155.06 44.172 154.87 43.8465 154.734 43.4454C154.604 43.0444 154.539 42.5626 154.539 42.0001V36.547H155.984V42.0157C155.984 42.396 156.026 42.7111 156.109 42.9611C156.198 43.2059 156.315 43.4012 156.461 43.547C156.612 43.6876 156.779 43.7866 156.961 43.8439C157.148 43.9012 157.341 43.9298 157.539 43.9298C158.154 43.9298 158.641 43.8126 159 43.5782C159.359 43.3387 159.617 43.0184 159.773 42.6173C159.935 42.2111 160.016 41.7605 160.016 41.2657ZM164.844 37.8751V45.0001H163.398V36.547H164.805L164.844 37.8751ZM167.484 36.5001L167.477 37.8439C167.357 37.8178 167.242 37.8022 167.133 37.797C167.029 37.7866 166.909 37.7814 166.773 37.7814C166.44 37.7814 166.146 37.8335 165.891 37.9376C165.635 38.0418 165.419 38.1876 165.242 38.3751C165.065 38.5626 164.924 38.7866 164.82 39.047C164.721 39.3022 164.656 39.5835 164.625 39.8907L164.219 40.1251C164.219 39.6147 164.268 39.1355 164.367 38.6876C164.471 38.2397 164.63 37.8439 164.844 37.5001C165.057 37.1512 165.328 36.8803 165.656 36.6876C165.99 36.4897 166.385 36.3907 166.844 36.3907C166.948 36.3907 167.068 36.4038 167.203 36.4298C167.339 36.4506 167.432 36.4741 167.484 36.5001ZM176 41.5626L178.258 33.6251H179.352L178.719 36.7111L176.289 45.0001H175.203L176 41.5626ZM173.664 33.6251L175.461 41.4064L176 45.0001H174.922L172.164 33.6251H173.664ZM182.273 41.3986L184.031 33.6251H185.539L182.789 45.0001H181.711L182.273 41.3986ZM179.516 33.6251L181.711 41.5626L182.508 45.0001H181.422L179.078 36.7111L178.438 33.6251H179.516ZM190.25 45.1564C189.661 45.1564 189.128 45.0574 188.648 44.8595C188.174 44.6564 187.766 44.3725 187.422 44.0079C187.083 43.6434 186.823 43.2111 186.641 42.7111C186.458 42.2111 186.367 41.6642 186.367 41.0704V40.7423C186.367 40.0548 186.469 39.4428 186.672 38.9064C186.875 38.3647 187.151 37.9064 187.5 37.5314C187.849 37.1564 188.245 36.8725 188.688 36.6798C189.13 36.4871 189.589 36.3907 190.062 36.3907C190.667 36.3907 191.188 36.4949 191.625 36.7032C192.068 36.9116 192.43 37.2032 192.711 37.5782C192.992 37.948 193.201 38.3855 193.336 38.8907C193.471 39.3907 193.539 39.9376 193.539 40.5314V41.1798H187.227V40.0001H192.094V39.8907C192.073 39.5157 191.995 39.1512 191.859 38.797C191.729 38.4428 191.521 38.1512 191.234 37.922C190.948 37.6928 190.557 37.5782 190.062 37.5782C189.734 37.5782 189.432 37.6486 189.156 37.7892C188.88 37.9246 188.643 38.1277 188.445 38.3986C188.247 38.6694 188.094 39.0001 187.984 39.3907C187.875 39.7814 187.82 40.2319 187.82 40.7423V41.0704C187.82 41.4715 187.875 41.8491 187.984 42.2032C188.099 42.5522 188.263 42.8595 188.477 43.1251C188.695 43.3907 188.958 43.5991 189.266 43.7501C189.578 43.9012 189.932 43.9767 190.328 43.9767C190.839 43.9767 191.271 43.8725 191.625 43.6642C191.979 43.4559 192.289 43.1772 192.555 42.8282L193.43 43.5236C193.247 43.7996 193.016 44.0626 192.734 44.3126C192.453 44.5626 192.107 44.7657 191.695 44.922C191.289 45.0782 190.807 45.1564 190.25 45.1564ZM195.219 33.0001H196.672V43.3595L196.547 45.0001H195.219V33.0001ZM202.383 40.7032V40.8673C202.383 41.4819 202.31 42.0522 202.164 42.5782C202.018 43.0991 201.805 43.5522 201.523 43.9376C201.242 44.323 200.898 44.6225 200.492 44.8361C200.086 45.0496 199.62 45.1564 199.094 45.1564C198.557 45.1564 198.086 45.0652 197.68 44.8829C197.279 44.6954 196.94 44.4272 196.664 44.0782C196.388 43.7293 196.167 43.3074 196 42.8126C195.839 42.3178 195.727 41.7605 195.664 41.1407V40.422C195.727 39.797 195.839 39.2371 196 38.7423C196.167 38.2475 196.388 37.8256 196.664 37.4767C196.94 37.1225 197.279 36.8543 197.68 36.672C198.081 36.4845 198.547 36.3907 199.078 36.3907C199.609 36.3907 200.081 36.4949 200.492 36.7032C200.904 36.9064 201.247 37.198 201.523 37.5782C201.805 37.9585 202.018 38.4142 202.164 38.9454C202.31 39.4715 202.383 40.0574 202.383 40.7032ZM200.93 40.8673V40.7032C200.93 40.2814 200.891 39.8855 200.812 39.5157C200.734 39.1407 200.609 38.8126 200.438 38.5314C200.266 38.2449 200.039 38.021 199.758 37.8595C199.477 37.6928 199.13 37.6095 198.719 37.6095C198.354 37.6095 198.036 37.672 197.766 37.797C197.5 37.922 197.273 38.0913 197.086 38.3048C196.898 38.5131 196.745 38.7527 196.625 39.0236C196.51 39.2892 196.424 39.5652 196.367 39.8517V41.7345C196.451 42.0991 196.586 42.4506 196.773 42.7892C196.966 43.1225 197.221 43.396 197.539 43.6095C197.862 43.823 198.26 43.9298 198.734 43.9298C199.125 43.9298 199.458 43.8517 199.734 43.6954C200.016 43.534 200.242 43.3126 200.414 43.0314C200.591 42.7501 200.721 42.4246 200.805 42.0548C200.888 41.685 200.93 41.2892 200.93 40.8673Z" fill="black"/>
</svg>
